<svg xmlns="http://www.w3.org/2000/svg" viewBox="0 0 151.74 21.75"><defs><style>.cls-1{fill:#3272cb;}</style></defs><title>Asset 1</title><g id="Layer_2" data-name="Layer 2"><g id="CONTENT"><path class="cls-1" d="M19,21.38H14L4.73,7.11s.09,2.53.09,4.75v9.52H0V.33H5.28l9,14.16s-.09-2.38-.09-4.61V.33H19Z"/><path class="cls-1" d="M42.12,18.12a12.41,12.41,0,0,1-9.36,3.59c-5.83,0-10.95-3.84-10.95-10.85S26.93,0,32.82,0c5.58,0,8,2.93,8.66,3.66L38.22,6.53a7,7,0,0,0-5.4-2.41c-3.39,0-6,2.47-6,6.74s2.68,6.74,6.1,6.74,4.39-1.34,4.39-1.34V13.14H32.88V9.39h9.24Z"/><path class="cls-1" d="M55.66,21.75c-6.25,0-11.16-4.06-11.16-10.86S49.41,0,55.66,0,66.82,4.09,66.82,10.89,61.91,21.75,55.66,21.75m0-17.54c-3.5,0-6.16,2.53-6.16,6.56s2.66,6.58,6.16,6.58,6.16-2.56,6.16-6.58-2.65-6.56-6.16-6.56"/><path class="cls-1" d="M78.48,10.28a4.18,4.18,0,0,0-3.14-1.5c-1.26,0-2.57.58-2.57,2,0,2.28,6.35,1.61,6.35,5.7,0,3.26-2.93,5.21-6.07,5.21A5.79,5.79,0,0,1,68,19.09l1.62-1.68a4.64,4.64,0,0,0,3.81,2c1.41,0,3-.67,3-2.32,0-2.62-6.28-1.71-6.28-5.64,0-2.93,2.5-4.85,5.4-4.85a5.3,5.3,0,0,1,4.48,2Z"/><path class="cls-1" d="M87.66,21.71c-3.69,0-6.35-2.4-6.35-6.16A8.75,8.75,0,0,1,90,6.62a5.94,5.94,0,0,1,6.31,6.19,8.71,8.71,0,0,1-8.69,8.9M89.64,9c-3.23,0-5.37,3.08-5.37,6.1,0,2.31,1.37,4,3.78,4,3.24,0,5.37-3.08,5.37-6.13,0-2.31-1.37-4-3.78-4"/><path class="cls-1" d="M101.81,15.43a10.71,10.71,0,0,0-.12,1.37,2.1,2.1,0,0,0,2.38,2.41c2.56,0,3.78-2.34,4.14-4.57l1.25-7.75h2.84l-2,12.35a7.59,7.59,0,0,0-.06,1.13,4.71,4.71,0,0,0,.09,1h-2.81a4.23,4.23,0,0,1-.09-1,6.3,6.3,0,0,1,.06-1,5.87,5.87,0,0,1-4.66,2.31q-4.12,0-4.12-4.11a11.83,11.83,0,0,1,.18-2.05l1-6.49a9,9,0,0,0,.09-1.16,4.71,4.71,0,0,0-.09-1h2.83a3.83,3.83,0,0,1,.1,1,8,8,0,0,1-.13,1.4Z"/><path class="cls-1" d="M123.49,9.61h-.15a3,3,0,0,0-1.46-.28c-2.5,0-3.54,2.78-3.88,4.79l-1.16,7.26H114L116,9A7.59,7.59,0,0,0,116,7.87a4.71,4.71,0,0,0-.09-1h2.87a4.23,4.23,0,0,1,.09,1,7.08,7.08,0,0,1-.12,1.28h0a4.52,4.52,0,0,1,3.87-2.5,3.24,3.24,0,0,1,1.43.24Z"/><path class="cls-1" d="M135.66,10.86A4.42,4.42,0,0,0,131.85,9c-3.2,0-5.37,3.11-5.37,6.1a3.71,3.71,0,0,0,3.85,4,7.29,7.29,0,0,0,4.54-1.67l.52,2.22a9.15,9.15,0,0,1-5.86,2,5.84,5.84,0,0,1-6-6.19A8.73,8.73,0,0,1,132,6.62c1.83,0,3.94.64,5,2.07Z"/><path class="cls-1" d="M143.93,15.19a23.78,23.78,0,0,1-3.45-.28,5.16,5.16,0,0,0,0,.55,3.58,3.58,0,0,0,3.84,3.91,9.14,9.14,0,0,0,5-1.68l.91,1.74a10.08,10.08,0,0,1-6.56,2.28c-3.69,0-6-2.34-6-6a9.16,9.16,0,0,1,9.22-9.09c2.95,0,4.94,1.61,4.94,3.9,0,1-1.16,4.7-7.81,4.7m2.5-6.5a5.79,5.79,0,0,0-5.58,4.15,15.05,15.05,0,0,0,2.41.18c2.8,0,5.76-.7,5.76-2.53,0-.94-.94-1.8-2.59-1.8"/></g></g></svg>